# xmcd
# Copyright (C) 1995-1998 Ti Kan
#
# Track frame offsets:
#       150
#       17382
#       30501
#       44015
#
# Disc length: 790 seconds
#
# Revision: 0
# Processed by: cddbd v1.5.2PL0 Copyright (c) Steve Scherf et al.
# Submitted via: CD-Import v1.0
#
DISCID=25031404
DTITLE=Torps - 
DYEAR=05
DGENRE=
TTITLE0=La Complainte Du Triste Amant
TTITLE1=La Célébrité
TTITLE2=Y'a Pas De Soirée
TTITLE3=Un Coeur D'artichaut
EXTD=
EXTT0=
EXTT1=
EXTT2=
EXTT3=
PLAYORDER=
